<svg xmlns="http://www.w3.org/2000/svg" xmlns:xlink="http://www.w3.org/1999/xlink" version="1.1" x="0px" y="0px" viewBox="0 0 72 90" enable-background="new 0 0 72 72" xml:space="preserve"><g><path fill="#000000" d="M67.2,67.2V33.3c0-0.4-0.4-0.7-0.8-0.6c-1.1,0.4-2.2,0.6-3.3,0.6c-1.9,0-3.6-0.5-5.1-1.4   c-0.2-0.1-0.4-0.1-0.6,0c-1.5,0.9-3.3,1.4-5.1,1.4c-1.9,0-3.6-0.5-5.1-1.4c-0.2-0.1-0.4-0.1-0.6,0c-1.5,0.9-3.3,1.4-5.1,1.4   c-1.9,0-3.6-0.5-5.1-1.4c-0.2-0.1-0.4-0.1-0.6,0c-1.5,0.9-3.3,1.4-5.1,1.4c-1.9,0-3.6-0.5-5.1-1.4c-0.2-0.1-0.4-0.1-0.6,0   c-1.5,0.9-3.3,1.4-5.1,1.4c-1.9,0-3.6-0.5-5.1-1.4c-0.2-0.1-0.4-0.1-0.6,0c-1.5,0.9-3.3,1.4-5.1,1.4c-1.2,0-2.3-0.2-3.3-0.6   c-0.4-0.1-0.8,0.2-0.8,0.6v33.9c0,0.3-0.3,0.6-0.6,0.6H1.6c-0.3,0-0.6,0.3-0.6,0.6v2C1,70.7,1.3,71,1.6,71h68.8   c0.3,0,0.6-0.3,0.6-0.6v-2c0-0.3-0.3-0.6-0.6-0.6h-2.6C67.5,67.8,67.2,67.6,67.2,67.2z M30.8,67.5H13.1c-0.3,0-0.6-0.3-0.6-0.6   V39.9c0-0.3,0.3-0.6,0.6-0.6h17.7c0.3,0,0.6,0.3,0.6,0.6v27.1C31.4,67.3,31.2,67.5,30.8,67.5z M58.9,54H41.2   c-0.3,0-0.6-0.3-0.6-0.6V41.8c0-0.3,0.3-0.6,0.6-0.6h17.7c0.3,0,0.6,0.3,0.6,0.6v11.6C59.5,53.7,59.2,54,58.9,54z"/><path fill="#000000" d="M70.4,14.9l-9-13.7C61.2,1.1,61,1,60.8,1L11.7,1.3c-0.2,0-0.4,0.1-0.5,0.3L1.7,14.9c-0.3,0.4,0,0.9,0.5,0.9   h0.6c0.4,0,0.8,0.3,0.8,0.8v6c0,3.1,2.4,5.7,5.4,5.7c2.5,0,4.6-1.8,5.2-4.3c0-0.1,0.1-0.1,0.2-0.1l0,0c0.1,0,0.2,0.1,0.2,0.1   c0.6,2.4,2.7,4.3,5.2,4.3h0c2.5,0,4.6-1.8,5.2-4.3c0-0.1,0.1-0.1,0.2-0.1l0,0c0.1,0,0.2,0.1,0.2,0.1c0.6,2.4,2.7,4.3,5.2,4.3   c2.5,0,4.6-1.8,5.2-4.3c0-0.1,0.1-0.1,0.2-0.1l0,0c0.1,0,0.2,0.1,0.2,0.1c0.6,2.4,2.7,4.3,5.2,4.3c2.5,0,4.6-1.8,5.2-4.3   c0-0.1,0.1-0.1,0.2-0.1l0,0c0.1,0,0.2,0.1,0.2,0.1c0.6,2.4,2.7,4.3,5.2,4.3h0c2.5,0,4.6-1.8,5.2-4.3c0-0.1,0.1-0.1,0.2-0.1l0,0   c0.1,0,0.2,0.1,0.2,0.1c0.6,2.4,2.7,4.3,5.2,4.3c3,0,5.4-2.5,5.4-5.7v-6c0-0.4,0.3-0.8,0.8-0.8h0.7C70.3,15.8,70.6,15.3,70.4,14.9z   "/></g><text x="0" y="87" fill="#000000" font-size="5px" font-weight="bold" font-family="'Helvetica Neue', Helvetica, Arial-Unicode, Arial, Sans-serif">Created by Creative Stall</text><text x="0" y="92" fill="#000000" font-size="5px" font-weight="bold" font-family="'Helvetica Neue', Helvetica, Arial-Unicode, Arial, Sans-serif">from the Noun Project</text></svg>